<svg xmlns="http://www.w3.org/2000/svg" viewBox="0 0 23 23"><title>Ресурс 1</title><defs><style>.cls-1{fill:#efcbd3}</style></defs><g class="cls-1" id="Слой_2" data-name="Слой 2"><path d="M17.23 14.89a1.28 1.28 0 0 0-1.31 0l-2 1.22a1.28 1.28 0 0 1-1.5-.11 33.29 33.29 0 0 1-2.91-2.54A33.29 33.29 0 0 1 7 10.58a1.28 1.28 0 0 1-.09-1.45l1.22-2a1.29 1.29 0 0 0 0-1.31L5.11.64A1.29 1.29 0 0 0 3.68 0a4.24 4.24 0 0 0-2 1.19c-2.3 2.36-3.53 6.26 5.17 14.96s12.6 7.47 14.92 5.16a4.26 4.26 0 0 0 1.19-2 1.29 1.29 0 0 0-.6-1.42z" id="Layer_1" data-name="Layer 1"/></g></svg>